<?xml version="1.0" encoding="UTF-8" standalone="no"?>
<svg xmlns="http://www.w3.org/2000/svg" fill="none" stroke="#fff" viewBox="0 0 198.74 278.12">
  <path stroke-width="1.35" d="M-39.53-73.73L34.34.15l-73.87 73.88L-113.4.15z"/>
  <path stroke-width=".94" d="M-39.53-69.34L29.97.16l-69.5 69.5-69.5-69.5z"/>
  <path stroke-width=".5" d="M-39.53-64.97L25.6.15l-65.12 65.12L-104.67.15z"/>
  <path stroke-width="1.35" d="M53.07-73.73L126.95.15 53.07 74.03-20.8.15z"/>
  <path stroke-width=".94" d="M53.07-69.34l69.5 69.5-69.5 69.5-69.5-69.5z"/>
  <path stroke-width=".5" d="M53.07-64.97L118.2.15 53.06 65.27-12.05.15z"/>
  <path stroke-width="1.35" d="M-39.53 18.88l73.87 73.87-73.87 73.88-73.88-73.88z"/>
  <path stroke-width=".94" d="M-39.53 23.26l69.5 69.5-69.5 69.5-69.5-69.5z"/>
  <path stroke-width=".5" d="M-39.53 27.63L25.6 92.75l-65.12 65.13-65.14-65.13z"/>
  <path stroke-width="1.35" d="M53.07 18.88l73.88 73.87-73.88 73.88-73.88-73.88z"/>
  <path stroke-width=".94" d="M53.07 23.26l69.5 69.5-69.5 69.5-69.5-69.5z"/>
  <path stroke-width=".5" d="M53.07 27.63l65.13 65.12-65.13 65.13-65.12-65.13z"/>
  <path stroke-width="1.35" d="M-39.53 111.48l73.87 73.88-73.87 73.88-73.88-73.88z"/>
  <path stroke-width=".94" d="M-39.53 115.86l69.5 69.5-69.5 69.5-69.5-69.5z"/>
  <path stroke-width=".5" d="M-39.53 120.23l65.12 65.13-65.12 65.13-65.14-65.13z"/>
  <path stroke-width="1.35" d="M53.07 111.48l73.88 73.88-73.88 73.88-73.88-73.88z"/>
  <path stroke-width=".94" d="M53.07 115.86l69.5 69.5-69.5 69.5-69.5-69.5z"/>
  <path stroke-width=".5" d="M53.07 120.23l65.13 65.13-65.13 65.13-65.12-65.13z"/>
  <path stroke-width="1.35" d="M-39.53 204.09l73.87 73.88-73.87 73.88-73.88-73.88z"/>
  <path stroke-width=".94" d="M-39.53 208.47l69.5 69.5-69.5 69.5-69.5-69.5z"/>
  <path stroke-width=".5" d="M-39.53 212.84l65.12 65.13-65.12 65.13-65.14-65.13z"/>
  <path stroke-width="1.35" d="M53.07 204.09l73.88 73.88-73.88 73.88-73.88-73.88z"/>
  <path stroke-width=".94" d="M53.07 208.47l69.5 69.5-69.5 69.5-69.5-69.5z"/>
  <path stroke-width=".5" d="M53.07 212.84l65.13 65.13-65.13 65.13-65.12-65.13z"/>
  <path stroke-width="1.35" d="M145.68-73.73L219.56.15l-73.88 73.88L71.8.15z"/>
  <path stroke-width=".94" d="M145.68-69.34l69.5 69.5-69.5 69.5L76.18.15z"/>
  <path stroke-width=".5" d="M145.68-64.97L210.8.15l-65.13 65.12L80.55.15z"/>
  <path stroke-width="1.35" d="M238.28-73.73L312.18.15l-73.89 73.88L164.4.15z"/>
  <path stroke-width=".94" d="M238.28-69.34l69.5 69.5-69.5 69.5-69.5-69.5z"/>
  <path stroke-width=".5" d="M238.28-64.97L303.4.15 238.3 65.27 173.16.15z"/>
  <path stroke-width="1.35" d="M145.68 18.88l73.88 73.87-73.88 73.88L71.8 92.75z"/>
  <path stroke-width=".94" d="M145.68 23.26l69.5 69.5-69.5 69.5-69.5-69.5z"/>
  <path stroke-width=".5" d="M145.68 27.63l65.13 65.12-65.13 65.13-65.13-65.13z"/>
  <path stroke-width="1.35" d="M238.28 18.88l73.88 73.87-73.88 73.88-73.88-73.88z"/>
  <path stroke-width=".94" d="M238.28 23.26l69.5 69.5-69.5 69.5-69.5-69.5z"/>
  <path stroke-width=".5" d="M238.28 27.63l65.13 65.12-65.13 65.13-65.13-65.13z"/>
  <path stroke-width="1.35" d="M145.68 111.48l73.88 73.88-73.88 73.88-73.88-73.88z"/>
  <path stroke-width=".94" d="M145.68 115.86l69.5 69.5-69.5 69.5-69.5-69.5z"/>
  <path stroke-width=".5" d="M145.68 120.23l65.13 65.13-65.13 65.13-65.13-65.13z"/>
  <path stroke-width="1.35" d="M238.28 111.48l73.88 73.88-73.88 73.88-73.88-73.88z"/>
  <path stroke-width=".94" d="M238.28 115.86l69.5 69.5-69.5 69.5-69.5-69.5z"/>
  <path stroke-width=".5" d="M238.28 120.23l65.13 65.13-65.13 65.13-65.13-65.13z"/>
  <path stroke-width="1.35" d="M145.68 204.09l73.88 73.88-73.88 73.88-73.88-73.88z"/>
  <path stroke-width=".94" d="M145.68 208.47l69.5 69.5-69.5 69.5-69.5-69.5z"/>
  <path stroke-width=".5" d="M145.68 212.84l65.13 65.13-65.13 65.13-65.13-65.13z"/>
  <path stroke-width="1.35" d="M238.28 204.09l73.88 73.88-73.88 73.88-73.88-73.88z"/>
  <path stroke-width=".94" d="M238.28 208.47l69.5 69.5-69.5 69.5-69.5-69.5z"/>
  <path stroke-width=".5" d="M238.28 212.84l65.13 65.13-65.13 65.13-65.13-65.13z"/>
  <rect width="197.39" height="276.77" x=".68" y=".68" stroke-width="1.35" ry="7"/>
</svg>
